<svg xmlns="http://www.w3.org/2000/svg" viewBox="0 0 471.42 476.39"><defs><style>.cls-1{fill:#359c88;}.cls-2{fill:#2b2f37;}.cls-3{fill:#fff;}.cls-4{fill:#040006;}</style></defs><title>cf-shirt</title><g id="tinta_verde" data-name="tinta verde"><path class="cls-1" d="M351.78,14.74c-5.59-.59-11.2-1-16.67-1.33-18-1.27-36.23-4-53.59-9.14-23.33-6.89-47.27-7-65.81,11.27-25.3,24.86-13.32,57.53-13.15,88.79A109.89,109.89,0,0,1,174,178.38c-31.55,34.43-95.11,66.29-92.15,121.13,1.65,30.58,29.05,54.36,58.13,63.95a166.14,166.14,0,0,0,74.79,6.86c26.94-3.91,48.61-18.53,70.72-33.47,12.81-8.66,26.21-16.38,39.63-24,15.59-8.89,29.67-16.21,47.74-18.08,22.12-2.29,53.52.71,70.46-16.38,13-13.14,14.79-35.93,1.41-49.47-10.89-11-26.22-16.34-37.12-27.33-15.88-16-14-42.27-7.88-64,7.54-26.88,15.78-60.68,4.95-87.8C395.89,27.82,374.25,17.11,351.78,14.74Z"/><path class="cls-1" d="M452,143.72c-1.55-8.44-14.15-14.23-26.4-10.47-17.73,5.44-24.12,31.36-16.76,46.5,6.56,13.49,30.59,24.75,40.17,6.08,3.76-7.34-1.23-15.15-1.86-20.21C446.25,158.33,453.5,151.82,452,143.72Z"/><path class="cls-1" d="M456,162.22c.7-7.56,9.15-11.91,13-10.09,5.17,2.44.63,7.57.64,11.56s3.33,8.15.23,10.39C464.6,177.85,455.23,170.14,456,162.22Z"/><path class="cls-1" d="M463.28,181.25c-3.84-3.24-10,1.67-5.95,6.37C461.22,192.14,468.76,185.88,463.28,181.25Z"/></g><g id="tinta_verde_oscuro" data-name="tinta verde oscuro"><path class="cls-2" d="M314.42,47.74A50.06,50.06,0,1,0,364.48,97.8,50.06,50.06,0,0,0,314.42,47.74ZM334.18,118H313.93a4.92,4.92,0,0,1,0-9.84h20.25a4.92,4.92,0,1,1,0,9.84Zm0-15.3h-8.69a4.92,4.92,0,0,1,0-9.84h8.69a4.92,4.92,0,1,1,0,9.84Z"/></g><g id="tinta_blanca" data-name="tinta blanca"><path class="cls-3" d="M334.18,87.43H294.66a4.92,4.92,0,1,1,0-9.84h39.52a4.92,4.92,0,1,1,0,9.84Z"/><path class="cls-3" d="M311,102.72H294.66a4.92,4.92,0,1,1,0-9.84H311a4.92,4.92,0,0,1,0,9.84Z"/><path class="cls-3" d="M299.53,118h-4.87a4.92,4.92,0,1,1,0-9.84h4.87a4.92,4.92,0,1,1,0,9.84Z"/><path class="cls-4" d="M314.42,160.69A62.89,62.89,0,1,1,377.3,97.8,63,63,0,0,1,314.42,160.69Zm0-124.77A61.89,61.89,0,1,0,376.3,97.8,62,62,0,0,0,314.42,35.92Z"/><path class="cls-4" d="M314.42,168.66a70.4,70.4,0,0,1-50-20.67.5.5,0,0,1,0-.71.51.51,0,0,1,.71,0,69.39,69.39,0,0,0,49.32,20.38,70.61,70.61,0,0,0,9.76-.67.49.49,0,0,1,.56.42.5.5,0,0,1-.43.57A72.39,72.39,0,0,1,314.42,168.66Z"/><path class="cls-4" d="M274.38,73.75a6,6,0,0,1-4.79-9.61,55.64,55.64,0,0,1,44.83-22.4,6,6,0,0,1,0,12,43.73,43.73,0,0,0-35.24,17.61A6,6,0,0,1,274.38,73.75Zm40-31a54.67,54.67,0,0,0-44,22,5,5,0,1,0,8,6,44.73,44.73,0,0,1,36-18,5,5,0,0,0,0-10Z"/><path class="cls-4" d="M229.43,157.24a104.85,104.85,0,0,1-47.78-12c-17.61-9.2-33-27.11-44.41-51.78l-.28-.61c-.53-1.11-1-2.3-1.56-3.51-2.6-6-5.28-12.25-10.29-12.67-3.06-.26-5.06.51-5.68,1.38a.79.79,0,0,0-.13.81c.71,1.6,6.3,2.1,8.19,1.79a.51.51,0,0,1,.58.41.5.5,0,0,1-.42.57c-1.51.26-8.17.11-9.26-2.36a1.79,1.79,0,0,1,.22-1.8c.77-1.07,2.9-2.11,6.58-1.8,5.61.48,8.54,7.27,11.13,13.27.51,1.2,1,2.38,1.54,3.49l.29.61c11.34,24.47,26.55,42.22,44,51.32,31.77,16.6,70.67,15.66,88.56-2.14a.5.5,0,0,1,.71,0,.48.48,0,0,1,0,.7C261.85,152.45,246.5,157.24,229.43,157.24Z"/><path class="cls-4" d="M128.76,97a.5.5,0,0,1-.49-.42,14,14,0,0,0-3.49-7.32.5.5,0,0,1,.73-.69,15.08,15.08,0,0,1,3.75,7.85.51.51,0,0,1-.42.57Z"/><path class="cls-4" d="M115.15,110.29a10.19,10.19,0,0,1-4.57-1,8,8,0,0,1-3.81-5,13.38,13.38,0,0,1,1.67-10.47c1.45-2.41,6.16-8,18.61-8a.5.5,0,0,1,0,1c-11.94,0-16.39,5.26-17.75,7.52a12.35,12.35,0,0,0-1.57,9.68,7,7,0,0,0,3.3,4.44c4.72,2.39,13.75-.63,16.08-4.39a4.21,4.21,0,0,0,.29-.51.5.5,0,0,1,.89.46,6.65,6.65,0,0,1-.33.58C126,107.7,120.16,110.29,115.15,110.29Z"/><path class="cls-4" d="M128,94a.5.5,0,0,1-.5-.5,35.23,35.23,0,0,0-2.46-12,.5.5,0,0,1,.26-.66.51.51,0,0,1,.66.26,36.71,36.71,0,0,1,2.54,12.44A.5.5,0,0,1,128,94Z"/><path class="cls-4" d="M119.74,109.64a.48.48,0,0,1-.32-.11c-7.08-5.86-7.38-15.35-6.45-20a.5.5,0,0,1,1,.19c-.89,4.47-.61,13.52,6.11,19.08a.5.5,0,0,1-.32.88Z"/><path class="cls-4" d="M126.41,102.86a.56.56,0,0,1-.31-.11,16.7,16.7,0,0,1-6-16,.5.5,0,0,1,1,.21,15.66,15.66,0,0,0,5.65,15,.51.51,0,0,1,.09.71A.53.53,0,0,1,126.41,102.86Z"/><path class="cls-4" d="M133.15,111.47a.5.5,0,0,1-.46-.3,24.77,24.77,0,0,0-5.87-7.71c-2-1.95-3.56-3.49-3.56-5.41a2.45,2.45,0,0,1,1.18-2.24c1.19-.73,3.12-.55,5,.44,3.17,1.67,5.85,4.83,7.55,7.19a.49.49,0,0,1-.12.69.5.5,0,0,1-.69-.11c-1.64-2.27-4.21-5.31-7.21-6.88-1.55-.81-3.17-1-4-.48a1.53,1.53,0,0,0-.69,1.39c0,1.5,1.44,2.91,3.26,4.69a25.78,25.78,0,0,1,6.09,8,.52.52,0,0,1-.46.7Z"/><path class="cls-4" d="M237.1,202.71H237c-11.26-2.45-40.45-10-68.44-26.86-19-11.48-42.87-34.82-52.62-65.88a.5.5,0,0,1,.33-.63.49.49,0,0,1,.62.33c9.67,30.79,33.3,53.93,52.18,65.32,28.65,17.27,59.4,24.84,68.14,26.75a.49.49,0,0,1,.38.59A.5.5,0,0,1,237.1,202.71Z"/><path class="cls-4" d="M60.72,352.33a.5.5,0,0,1-.5-.48c-.68-16.14.31-70.81,41.63-96.45,18.05-11.19,39.28-13,59.82-14.69,18.16-1.51,35.31-3,49.61-10.57,18.3-9.76,28.33-31.24,30.61-43.29a.5.5,0,0,1,1,.18c-2.31,12.25-12.51,34.07-31.12,44-14.48,7.72-31.73,9.16-50,10.69-20.42,1.71-41.53,3.47-59.37,14.54C61.52,281.6,60.55,335.8,61.22,351.81a.5.5,0,0,1-.48.52Z"/><path class="cls-4" d="M88,375.4h0c-8.72-.63-16.11-1.15-22.84-1.61-14.72-1-26.35-1.85-41.58-3.07a.5.5,0,0,1-.46-.5c0-2.46,1.34-4.92,4-7.31,8.31-7.47,27.25-12.24,42.23-10.64a.5.5,0,1,1-.11,1c-14.73-1.57-33.33,3.09-41.45,10.39-2.27,2-3.49,4.1-3.66,6.11,15,1.2,26.54,2,41.1,3,6.59.46,13.83,1,22.31,1.57.73-30.47,15-54.19,27.06-65.29,22.65-20.83,61.56-15.71,82.74-10.8a.5.5,0,0,1,.38.6.49.49,0,0,1-.6.37c-21-4.86-59.53-9.95-81.84,10.57-12,11-26.18,34.69-26.75,65.1a.52.52,0,0,1-.16.36A.51.51,0,0,1,88,375.4Z"/><path class="cls-4" d="M234.27,430.88a.48.48,0,0,1-.33-.13c-23.78-21.21-38.19-45.29-42.83-71.58-2.89-16.36-2-33.08,2.78-51.11,6-22.68,20.61-43.46,42.26-60.11,37.46-28.8,47.86-58.8,53.1-84.34a.5.5,0,0,1,.59-.39.51.51,0,0,1,.39.59c-5.28,25.73-15.75,55.93-53.47,84.93-21.48,16.51-36,37.11-41.9,59.58C182.62,354.62,196,395.56,234.61,430a.5.5,0,0,1-.34.88Z"/><path class="cls-4" d="M232.09,476.39a.5.5,0,0,1-.26-.08c-2.52-1.53-4.38-6.39-5-13-1.24-13.72,3-32.42,15.19-43.27a.5.5,0,0,1,.67.75c-12,10.62-16.08,29-14.86,42.43.52,5.84,2.08,10.34,4.11,12,2.69-4,23.83-35.2,38.59-56.95-22.09-15.93-32.37-35.69-30.57-58.76s23-43.78,35.51-54.16c36.21-30.07,46.61-51.6,51.65-76.59a.5.5,0,0,1,.58-.39.51.51,0,0,1,.4.59c-5.09,25.2-15.56,46.9-52,77.16C263.76,316.36,242.75,337,241,359.54c-1.79,22.84,8.49,42.41,30.55,58.16a.5.5,0,0,1,.12.69c-15.79,23.27-39.15,57.78-39.15,57.78A.49.49,0,0,1,232.09,476.39Z"/><path class="cls-4" d="M325.25,328.41a8.93,8.93,0,0,1-4.15-.81,2.09,2.09,0,0,1-1.22-1.74c-.07-1.93,2.15-2.35,4.1-2.71l1-.19c15.93-3.37,24.44-30.29,24.45-48.43,0-16.44-5.4-38.61-31.27-50.88l-.87-.42a.5.5,0,1,1,.45-.89l.85.41c26.34,12.49,31.86,35.05,31.84,51.78,0,18.48-8.79,45.93-25.25,49.41l-1,.19c-2,.38-3.32.7-3.29,1.69,0,.13,0,.52.71.9,2.13,1.19,8.14.81,11.87-1.31a.49.49,0,0,1,.68.18.51.51,0,0,1-.18.69A19,19,0,0,1,325.25,328.41Z"/><path class="cls-4" d="M324.43,349.77a2.83,2.83,0,0,1-1.84-.65c-.9-.77-1.4-2.33-.1-4.42,2-3.26,11.26-19.52,12.73-22.72a.5.5,0,0,1,.67-.24.49.49,0,0,1,.24.66c-1.48,3.22-10.77,19.55-12.79,22.82-.82,1.32-.86,2.49-.1,3.13a2.35,2.35,0,0,0,3.05-.34,107.36,107.36,0,0,0,9-10.24.5.5,0,0,1,.7-.09.51.51,0,0,1,.09.71A110.37,110.37,0,0,1,327,348.76,3.86,3.86,0,0,1,324.43,349.77Z"/><path class="cls-4" d="M331.59,354.53a2.47,2.47,0,0,1-1.39-.41,2.9,2.9,0,0,1-.84-3.7c.38-.91,1.38-3,2.54-5.49,2.08-4.39,4.67-9.86,5.25-11.76a.5.5,0,0,1,1,.3c-.61,2-3.21,7.46-5.3,11.89-1.16,2.44-2.15,4.55-2.52,5.44a1.77,1.77,0,1,0,3,1.91c2-2.07,8.36-11.89,9.53-14.21a.49.49,0,0,1,.67-.22.5.5,0,0,1,.22.67c-1.21,2.42-7.57,12.28-9.7,14.46A3.35,3.35,0,0,1,331.59,354.53Z"/><path class="cls-4" d="M337.77,355.81a2,2,0,0,1-1-.25c-.74-.42-1.35-1.52-.64-3.22.53-1.27,1.39-3,2.3-4.76A77.25,77.25,0,0,0,342,340a.5.5,0,0,1,.94.34,78.58,78.58,0,0,1-3.58,7.71c-.9,1.78-1.75,3.46-2.27,4.69-.38.91-.29,1.68.22,2s1.5.07,2.4-1.15l.84-1.12c2.34-3.12,7.2-9.6,9-12.55a.5.5,0,0,1,.69-.17.49.49,0,0,1,.17.68c-1.78,3-6.66,9.51-9,12.64l-.84,1.12A3.56,3.56,0,0,1,337.77,355.81Z"/><path class="cls-4" d="M347.38,351.4a1.73,1.73,0,0,1-.87-.22,1.47,1.47,0,0,1-.63-1.8c.34-1.1.84-2.32,1.41-3.73.66-1.62,1.4-3.45,2.15-5.68a.51.51,0,0,1,.63-.32.52.52,0,0,1,.32.64c-.76,2.26-1.51,4.11-2.17,5.74-.57,1.38-1.06,2.58-1.38,3.65-.09.3,0,.52.16.63a1.32,1.32,0,0,0,1.49-.46c1.15-1.26,9-12.33,10.62-15.6.15-.33.56-1,1.24-2.14,23.11-38.55,30.89-72.64,22.52-98.57-10.45-32.33-31.64-46.42-52.13-60l-.48-.33c-7.62-5.06-9.52-9.54-10.33-12.87a.5.5,0,0,1,.37-.6.5.5,0,0,1,.61.37c.76,3.15,2.57,7.4,9.9,12.27l.49.32c20.63,13.72,42,27.91,52.52,60.57,8.47,26.22.65,60.59-22.61,99.4-.62,1-1.06,1.77-1.2,2.05-1.67,3.45-9.59,14.54-10.79,15.85A2.52,2.52,0,0,1,347.38,351.4Z"/><path class="cls-4" d="M137.13,148a.5.5,0,0,1-.21-1c14.36-6.69,20.94-15.65,23.11-19.2a.5.5,0,0,1,.85.52c-2.21,3.62-8.93,12.78-23.54,19.58A.41.41,0,0,1,137.13,148Z"/><path class="cls-4" d="M195.75,189.47a.54.54,0,0,1-.21-.05.5.5,0,0,1-.25-.66,13.15,13.15,0,0,0,1.19-5.5,13.28,13.28,0,0,0-25-6.28.5.5,0,1,1-.88-.47,14.27,14.27,0,0,1,25.57,12.66A.49.49,0,0,1,195.75,189.47Z"/><path class="cls-4" d="M290,182.93a18.81,18.81,0,0,1-16.51-27.81.5.5,0,1,1,.88.48,17.81,17.81,0,1,0,33,12.46.5.5,0,0,1,.6-.38.5.5,0,0,1,.38.59A18.92,18.92,0,0,1,290,182.93Z"/><path class="cls-4" d="M265.9,90.49a6.5,6.5,0,1,1,6.5-6.5A6.51,6.51,0,0,1,265.9,90.49Zm0-12a5.5,5.5,0,1,0,5.5,5.5A5.51,5.51,0,0,0,265.9,78.49Z"/><path class="cls-4" d="M107.05,271a18.91,18.91,0,0,1-15.12-7.62.5.5,0,0,1,.81-.6,17.81,17.81,0,0,0,31.32-15.88.49.49,0,0,1,.33-.62.49.49,0,0,1,.62.32,18.81,18.81,0,0,1-18,24.4Z"/><path class="cls-4" d="M195.71,375.52a.51.51,0,0,1-.49-.39.5.5,0,0,1,.37-.6,17.81,17.81,0,0,0-4.17-35.12c-.48,0-.95,0-1.42.06a.48.48,0,0,1-.53-.46.49.49,0,0,1,.46-.54c.49,0,1-.06,1.49-.06a18.81,18.81,0,0,1,4.4,37.09Z"/><path class="cls-4" d="M386.44,252.65a14.28,14.28,0,0,1-6-27.22.5.5,0,0,1,.66.24.5.5,0,0,1-.24.67,13.28,13.28,0,0,0,5.62,25.31.5.5,0,0,1,.5.5A.51.51,0,0,1,386.44,252.65Z"/><path class="cls-4" d="M189,171.25a.46.46,0,0,1-.23-.06.49.49,0,0,1-.2-.68c2.42-4.45,5.86-16.21,5.84-20a.5.5,0,0,1,.5-.51h0a.5.5,0,0,1,.5.5c0,4-3.43,15.81-6,20.46A.49.49,0,0,1,189,171.25Z"/><path class="cls-4" d="M345.37,250.83a.51.51,0,0,1-.41-.2.5.5,0,0,1,.12-.7c5.67-4.08,17.8-8.65,27.59-10.41a.51.51,0,0,1,.58.41.5.5,0,0,1-.4.58c-9.51,1.7-21.71,6.29-27.19,10.23A.52.52,0,0,1,345.37,250.83Z"/><path class="cls-4" d="M377.13,299.76a.47.47,0,0,1-.31-.11c-8.89-6.95-23.26-8.16-29-7.28a.5.5,0,0,1-.57-.41.52.52,0,0,1,.42-.58c5.87-.91,20.62.35,29.75,7.49a.5.5,0,0,1,.09.7A.53.53,0,0,1,377.13,299.76Z"/><path class="cls-4" d="M277.45,304.71a.5.5,0,0,1-.47-.33c-13.94-38.86-46-65.87-69.06-71.55a.48.48,0,0,1-.36-.6.5.5,0,0,1,.6-.37c23.32,5.74,55.7,33,69.76,72.18a.49.49,0,0,1-.3.64A.47.47,0,0,1,277.45,304.71Z"/><path class="cls-4" d="M318,212.36a10.54,10.54,0,0,1-3.72-.76c-2.14-.83-16.53-5.85-18.5-6.51s-5.23-2.49-4.14-7.12a53,53,0,0,1,3.44-8.41c1.75-3.31,5.91-3.22,7.13-3.12h0c6.71.59,15.59,3.6,19.38,4.89s4.36,4.42,4.36,6.64a52.27,52.27,0,0,1-2.39,10.85A5.68,5.68,0,0,1,318,212.36Zm-16.67-25c-1.51,0-4.17.34-5.37,2.62a53.58,53.58,0,0,0-3.34,8.17c-.87,3.67,1.41,5.26,3.48,6s16.39,5.69,18.54,6.51c4.57,1.76,7.16-.09,8-2.2A51.28,51.28,0,0,0,324.91,198c0-3.07-1.14-4.83-3.68-5.69-3.76-1.28-12.55-4.27-19.14-4.84h0C301.89,187.42,301.62,187.41,301.29,187.41Z"/><path class="cls-4" d="M310.12,198.31c-3.13,0-11.59-2.08-12.54-3.65a2.1,2.1,0,0,1-.05-1.6,6,6,0,0,1,1.83-3.09c1.83-1.05,11.61,2.41,12.6,3.15a2.37,2.37,0,0,1,.88,2.23,3.72,3.72,0,0,1-1.75,2.83A2.55,2.55,0,0,1,310.12,198.31Zm-9.68-7.57a1.25,1.25,0,0,0-.59.1h0a5.4,5.4,0,0,0-1.35,2.47,1.4,1.4,0,0,0-.06.83c.7,1.16,10.88,3.76,12.23,3.13a2.75,2.75,0,0,0,1.18-2,1.41,1.41,0,0,0-.49-1.33C310.25,193.1,302.78,190.74,300.44,190.74Zm-.84-.34h0Z"/><path class="cls-4" d="M320.89,201.77a17.21,17.21,0,0,1-6.95-2.25,1.52,1.52,0,0,1-.37-1.54c.23-1.15,1.31-3.13,1.94-3.33h0c1.66-.51,6.34.77,7.16,2a4.15,4.15,0,0,1,.12,3.46c-.16.43-.58,1.43-1.23,1.62A2.67,2.67,0,0,1,320.89,201.77Zm-5-6.18a6.24,6.24,0,0,0-1.34,2.88c0,.18,0,.26.05.27.82.68,5.47,2.35,6.72,2a3.23,3.23,0,0,0,.71-1.52,2.66,2.66,0,0,0-.16-2C321.32,196.42,317.25,195.23,315.86,195.59Zm-.2-.46h0Z"/><path class="cls-4" d="M303.74,204.2a26.1,26.1,0,0,1-4.49-1.17c-3.9-1.28-4.14-1.74-4.25-1.94a3.76,3.76,0,0,1,.23-2.7,2.86,2.86,0,0,1,1.69-1.72h0c.87-.25,7.66,2,8.26,2.71s.18,2.76-.22,3.69c-.32.72-.71,1.1-1.17,1.13Zm-6.58-6.55a2,2,0,0,0-1,1.14,3,3,0,0,0-.26,1.83c.55.55,6.91,2.58,7.82,2.58h0a2.61,2.61,0,0,0,.51-1.09,4.12,4.12,0,0,0,.17-2.1C303.83,199.48,298,197.67,297.16,197.65Z"/><path class="cls-4" d="M318.32,209h0c-1.22,0-10.41-3.21-11.44-4-.31-.24-.62-.76-.29-1.91.28-1,1.25-2.9,2.11-3h0c1.81-.18,11.09,3.35,11.77,3.77s.59,1.56.32,2.53C320.43,207.69,319.6,209,318.32,209Zm-9.48-7.9a5.4,5.4,0,0,0-1.39,2.74.63.63,0,0,0,0,.37A67.26,67.26,0,0,0,318.32,208h0c.58,0,1-.72,1.18-1a3.44,3.44,0,0,0,.42-2.28C319.27,204.34,310.4,201,308.84,201.13Zm0,0Z"/><path class="cls-4" d="M253.5,424.22a4.45,4.45,0,1,1,4.45-4.45A4.45,4.45,0,0,1,253.5,424.22Zm0-7.9a3.45,3.45,0,1,0,3.45,3.45A3.45,3.45,0,0,0,253.5,416.32Z"/><path class="cls-4" d="M79.36,362.93a4.45,4.45,0,1,1,4.45-4.45A4.46,4.46,0,0,1,79.36,362.93Zm0-7.9a3.45,3.45,0,1,0,3.45,3.45A3.46,3.46,0,0,0,79.36,355Z"/><path class="cls-4" d="M114.89,309.94a.51.51,0,0,1-.2,0c-14.48-6.35-34.48-26.06-36.85-30.52a.5.5,0,0,1,.88-.47c2.33,4.39,22.06,23.8,36.37,30.07a.5.5,0,0,1-.2,1Z"/><path class="cls-4" d="M102.27,325.5a.43.43,0,0,1-.19,0c-8.84-3.58-30-22-33.58-27.66a.51.51,0,0,1,.16-.69.5.5,0,0,1,.69.16c3.41,5.4,24.62,23.82,33.11,27.26a.5.5,0,0,1,.27.65A.49.49,0,0,1,102.27,325.5Z"/><path class="cls-4" d="M96,337.71a.54.54,0,0,1-.22,0c-10.16-5-30.31-20-32.25-23.05a.5.5,0,1,1,.84-.54c1.66,2.6,21.48,17.58,31.85,22.69a.5.5,0,0,1-.22.95Z"/><path class="cls-4" d="M91.75,349.75l-.14,0c-8.42-2.5-28.37-14.82-30.74-17.54a.5.5,0,1,1,.75-.66c2,2.32,21.48,14.63,30.27,17.24a.5.5,0,0,1,.34.62A.49.49,0,0,1,91.75,349.75Z"/><path class="cls-4" d="M132.21,299.55a.51.51,0,0,1-.48-.36c-2.66-8.78-13.25-26.62-16.41-30.6a.5.5,0,1,1,.78-.62c3.29,4.13,13.85,21.88,16.59,30.93a.5.5,0,0,1-.33.62A.4.4,0,0,1,132.21,299.55Z"/><path class="cls-4" d="M209.45,354.53a.51.51,0,0,1-.5-.43.51.51,0,0,1,.43-.56c3.86-.54,20.63-2.26,32.16-.93a.5.5,0,1,1-.11,1c-11.43-1.31-28.08.4-31.91.93Z"/><path class="cls-4" d="M202.07,390.44a.5.5,0,0,1,0-1c12-.57,31.27-7.5,39.77-11.08a.5.5,0,1,1,.38.92c-8.54,3.61-27.93,10.59-40.1,11.16Z"/><path class="cls-4" d="M209.45,402.88a.5.5,0,1,1,0-1c5.31,0,29.5-8.86,35.94-13.17a.51.51,0,0,1,.7.14.5.5,0,0,1-.14.69C239.42,393.9,214.86,402.88,209.45,402.88Z"/><path class="cls-4" d="M216.37,412.21a.5.5,0,0,1-.08-1c8.91-1.47,27.52-10.6,32.93-15.45a.5.5,0,0,1,.71,0,.51.51,0,0,1,0,.71c-5.5,4.92-24.4,14.19-33.44,15.69Z"/><path class="cls-4" d="M223.39,420.27a.5.5,0,0,1-.49-.38.51.51,0,0,1,.37-.61c5.4-1.3,26.08-12.35,30.46-17.24a.49.49,0,0,1,.7,0,.48.48,0,0,1,0,.7c-4.46,5-25.48,16.23-31,17.55Z"/><path class="cls-4" d="M136.3,123.86H60.45a2.79,2.79,0,0,1-2.79-2.79V66.42a2.79,2.79,0,0,1,2.79-2.79H136.3a2.79,2.79,0,0,1,2.78,2.79v54.65A2.79,2.79,0,0,1,136.3,123.86ZM60.45,64.63a1.79,1.79,0,0,0-1.79,1.79v54.65a1.79,1.79,0,0,0,1.79,1.79H136.3a1.79,1.79,0,0,0,1.78-1.79V66.42a1.79,1.79,0,0,0-1.78-1.79Z"/><path class="cls-4" d="M47.15,138.3H2.79A2.79,2.79,0,0,1,0,135.51V95.17a2.79,2.79,0,0,1,2.79-2.79H47.15a2.79,2.79,0,0,1,2.79,2.79v40.34A2.79,2.79,0,0,1,47.15,138.3ZM2.79,93.38A1.79,1.79,0,0,0,1,95.17v40.34a1.79,1.79,0,0,0,1.79,1.79H47.15a1.79,1.79,0,0,0,1.79-1.79V95.17a1.79,1.79,0,0,0-1.79-1.79Z"/><path class="cls-4" d="M101.79,161.14H61.29a3.64,3.64,0,0,1-3.63-3.63V136.15a3.64,3.64,0,0,1,3.63-3.63h40.5a3.64,3.64,0,0,1,3.63,3.63v21.36A3.64,3.64,0,0,1,101.79,161.14Zm-40.5-27.62a2.63,2.63,0,0,0-2.63,2.63v21.36a2.63,2.63,0,0,0,2.63,2.63h40.5a2.63,2.63,0,0,0,2.63-2.63V136.15a2.63,2.63,0,0,0-2.63-2.63Z"/><path class="cls-4" d="M130.19,72H67a.51.51,0,0,1-.5-.5A.5.5,0,0,1,67,71h63.23a.5.5,0,0,1,.5.5A.51.51,0,0,1,130.19,72Z"/><path class="cls-4" d="M113.09,79.44H67a.5.5,0,1,1,0-1h46.13a.5.5,0,0,1,0,1Z"/><path class="cls-4" d="M109.56,86.84H67a.5.5,0,0,1-.5-.5.51.51,0,0,1,.5-.5h42.6a.5.5,0,0,1,.5.5A.5.5,0,0,1,109.56,86.84Z"/><path class="cls-4" d="M103.33,94.24H67a.5.5,0,0,1-.5-.5.51.51,0,0,1,.5-.5h36.37a.51.51,0,0,1,.5.5A.5.5,0,0,1,103.33,94.24Z"/><path class="cls-4" d="M101.87,101.65H67a.51.51,0,0,1-.5-.5.5.5,0,0,1,.5-.5h34.91a.5.5,0,0,1,.5.5A.5.5,0,0,1,101.87,101.65Z"/><path class="cls-4" d="M104.29,109.05H67a.5.5,0,0,1,0-1h37.33a.5.5,0,0,1,0,1Z"/><path class="cls-4" d="M109.56,116.45H67a.5.5,0,0,1-.5-.5.51.51,0,0,1,.5-.5h42.6a.5.5,0,0,1,.5.5A.5.5,0,0,1,109.56,116.45Z"/><path class="cls-4" d="M61.63,59a4,4,0,1,1,4-4A4,4,0,0,1,61.63,59Zm0-6.93a3,3,0,1,0,3,3A3,3,0,0,0,61.63,52Z"/><path class="cls-4" d="M72,59a4,4,0,1,1,4-4A4,4,0,0,1,72,59ZM72,52a3,3,0,1,0,3,3A3,3,0,0,0,72,52Z"/><path class="cls-4" d="M82.41,59a4,4,0,1,1,4-4A4,4,0,0,1,82.41,59Zm0-6.93a3,3,0,1,0,3,3A3,3,0,0,0,82.41,52Z"/><path class="cls-4" d="M44.71,86.24a.5.5,0,0,1-.35-.85L48.73,81l-4.37-4.37a.5.5,0,0,1,.71-.71l4.72,4.72a.5.5,0,0,1,0,.71l-4.72,4.72A.51.51,0,0,1,44.71,86.24Z"/><path class="cls-4" d="M39.29,86.24a.49.49,0,0,1-.35-.15l-4.72-4.72a.5.5,0,0,1,0-.71l4.72-4.72a.5.5,0,1,1,.71.71L35.28,81l4.37,4.37a.5.5,0,0,1,0,.7A.51.51,0,0,1,39.29,86.24Z"/><path class="cls-4" d="M49.44,146.38H16.67a.51.51,0,0,1-.5-.5.5.5,0,0,1,.5-.5H49.44a.5.5,0,0,1,.5.5A.51.51,0,0,1,49.44,146.38Z"/><path class="cls-4" d="M49.44,152H28.79a.5.5,0,1,1,0-1H49.44a.5.5,0,0,1,0,1Z"/><path class="cls-4" d="M31.16,157.6h-12a.5.5,0,1,1,0-1h12a.5.5,0,0,1,0,1Z"/><path class="cls-4" d="M49.44,163.21H24.28a.5.5,0,0,1,0-1H49.44a.5.5,0,0,1,0,1Z"/><path class="cls-4" d="M33.77,168.82H22.56a.5.5,0,0,1-.5-.5.5.5,0,0,1,.5-.5H33.77a.5.5,0,0,1,.5.5A.5.5,0,0,1,33.77,168.82Z"/><path class="cls-4" d="M49.44,174.43H27.2a.5.5,0,0,1-.5-.5.5.5,0,0,1,.5-.5H49.44a.51.51,0,0,1,.5.5A.5.5,0,0,1,49.44,174.43Z"/><path class="cls-4" d="M49.44,157.6H35.58a.5.5,0,0,1,0-1H49.44a.5.5,0,0,1,0,1Z"/><path class="cls-4" d="M49.44,168.82H40a.5.5,0,0,1-.5-.5.5.5,0,0,1,.5-.5h9.49a.51.51,0,0,1,.5.5A.5.5,0,0,1,49.44,168.82Z"/><path class="cls-4" d="M81.55,153.79a7,7,0,1,1,7-7A7,7,0,0,1,81.55,153.79Zm0-12.92a6,6,0,1,0,6,6A6,6,0,0,0,81.55,140.87Z"/><path class="cls-4" d="M91.46,153.79a7,7,0,1,1,7-7A7,7,0,0,1,91.46,153.79Zm0-12.92a6,6,0,1,0,6,6A6,6,0,0,0,91.46,140.87Z"/><path class="cls-4" d="M71.76,153.79a7,7,0,1,1,7-7A7,7,0,0,1,71.76,153.79Zm0-12.92a6,6,0,1,0,6,6A6,6,0,0,0,71.76,140.87Z"/><path class="cls-4" d="M60.45,171.68h1.31v.65h-2v-.65h-.66V171h-.65v-2h.65v-.66h.66V171h.66Zm1.31,0v-2.63H61.1v-.66H59.79v-.65h2v.65h.66v.66h.65v2h-.65v.66Z"/><path class="cls-4" d="M65.7,171.68v-2.63H65v-.66h.66v-.65H67v3.94h1.32v.65H64.39v-.65Z"/><path class="cls-4" d="M71,171.68v-2.63H70.3v-.66H71v-.65h1.32v3.94h1.31v.65H69.64v-.65Z"/><path class="cls-4" d="M76.21,171.68h1.31v.65h-2v-.65H74.9V171h-.66v-2h.66v-.66h.65V171h.66Zm1.31,0v-2.63h-.65v-.66H75.55v-.65h2v.65h.66v.66h.66v2h-.66v.66Z"/><path class="cls-4" d="M81.46,171.68v-2.63h-.65v-.66h.65v-.65h1.32v3.94h1.31v.65H80.15v-.65Z"/><path class="cls-4" d="M86.72,171.68H88v.65h-2v-.65H85.4V171h-.65v-2h.65v-.66h.66V171h.66Zm1.31,0v-2.63h-.66v-.66H86.06v-.65h2v.65h.66v.66h.65v2h-.65v.66Z"/><path class="cls-4" d="M92,171.68v-2.63h-.66v-.66H92v-.65h1.32v3.94H94.6v.65H90.66v-.65Z"/><path class="cls-4" d="M60.45,178.4v-2.63h-.66v-.66h.66v-.65h1.31v3.94h1.31v.65H59.13v-.65Z"/><path class="cls-4" d="M65.7,178.4H67v.65H65v-.65h-.65v-.66h-.66v-2h.66v-.66H65v2.63h.66Zm1.31,0v-2.63h-.65v-.66H65v-.65h2v.65h.66v.66h.66v2h-.66v.66Z"/><path class="cls-4" d="M71,178.4v-2.63H70.3v-.66H71v-.65h1.32v3.94h1.31v.65H69.64v-.65Z"/><path class="cls-4" d="M76.21,178.4h1.31v.65h-2v-.65H74.9v-.66h-.66v-2h.66v-.66h.65v2.63h.66Zm1.31,0v-2.63h-.65v-.66H75.55v-.65h2v.65h.66v.66h.66v2h-.66v.66Z"/><path class="cls-4" d="M81.46,178.4v-2.63h-.65v-.66h.65v-.65h1.32v3.94h1.31v.65H80.15v-.65Z"/><path class="cls-4" d="M60.45,185.12h1.31v.66h-2v-.66h-.66v-.66h-.65v-2h.65v-.66h.66v2.63h.66Zm1.31,0v-2.63H61.1v-.66H59.79v-.65h2v.65h.66v.66h.65v2h-.65v.66Z"/><path class="cls-4" d="M65.7,185.12v-2.63H65v-.66h.66v-.65H67v3.94h1.32v.66H64.39v-.66Z"/><path class="cls-4" d="M71,185.12v-2.63H70.3v-.66H71v-.65h1.32v3.94h1.31v.66H69.64v-.66Z"/><path class="cls-4" d="M60.45,191.84v-2.63h-.66v-.65h.66v-.66h1.31v3.94h1.31v.66H59.13v-.66Z"/><path class="cls-4" d="M65.7,191.84H67v.66H65v-.66h-.65v-.66h-.66v-2h.66v-.65H65v2.62h.66Zm1.31,0v-2.63h-.65v-.65H65v-.66h2v.66h.66v.65h.66v2h-.66v.66Z"/><path class="cls-4" d="M60.45,198.56h1.31v.66h-2v-.66h-.66v-.66h-.65v-2h.65v-.65h.66v2.62h.66Zm1.31,0v-2.63H61.1v-.65H59.79v-.66h2v.66h.66v.65h.65v2h-.65v.66Z"/><path class="cls-4" d="M25,119.45a.5.5,0,0,1-.27-.08l-14.15-9.14a.53.53,0,0,1-.23-.42.5.5,0,0,1,.23-.42l14.15-9.15a.48.48,0,0,1,.54,0l14.15,9.15a.5.5,0,0,1,.23.42.53.53,0,0,1-.23.42l-14.15,9.14A.53.53,0,0,1,25,119.45Zm-13.23-9.64L25,118.36l13.22-8.55L25,101.25Z"/><path class="cls-4" d="M25,130.68a.5.5,0,0,1-.27-.08l-14.15-9.15a.5.5,0,0,1,0-.84l14.15-9.15a.52.52,0,0,1,.54,0l14.15,9.15a.5.5,0,0,1,0,.84L25.24,130.6A.53.53,0,0,1,25,130.68ZM11.74,121,25,129.58,38.19,121,25,112.48Z"/><path class="cls-4" d="M10.82,121.53a.5.5,0,0,1-.5-.5V109.81a.5.5,0,0,1,1,0V121A.5.5,0,0,1,10.82,121.53Z"/><path class="cls-4" d="M39.12,121.53a.5.5,0,0,1-.5-.5V109.81a.5.5,0,0,1,.5-.5.5.5,0,0,1,.5.5V121A.5.5,0,0,1,39.12,121.53Z"/><path class="cls-4" d="M25,112.38a.5.5,0,0,1-.5-.5V100.66a.5.5,0,0,1,.5-.5.5.5,0,0,1,.5.5v11.22A.5.5,0,0,1,25,112.38Z"/><path class="cls-4" d="M25,130.51a.5.5,0,0,1-.5-.5V118.78a.5.5,0,0,1,.5-.5.51.51,0,0,1,.5.5V130A.51.51,0,0,1,25,130.51Z"/><path class="cls-4" d="M284.13,171.81a1.42,1.42,0,0,1-.5-.08,1.38,1.38,0,0,1-1-1.26c-.15-2,2.76-5.27,6.36-7.2a.5.5,0,0,1,.72.53c-.34,1.88-2.56,6.53-4.59,7.71A2.05,2.05,0,0,1,284.13,171.81Zm4.3-7c-3.06,1.95-4.85,4.52-4.77,5.62a.41.41,0,0,0,.3.4.87.87,0,0,0,.69-.15C286.05,169.83,287.7,166.79,288.43,164.77Z"/></g></svg>